<svg version="1.1" id="Layer_1" xmlns="http://www.w3.org/2000/svg" xmlns:xlink="http://www.w3.org/1999/xlink" x="0px" y="0px"
	 width="100%" viewBox="0 0 352 100" enable-background="new 0 0 352 100" xml:space="preserve">
<path fill="#FDFDFE" opacity="1.000000" stroke="none" 
	d="
M248.000000,101.000000 
	C165.333359,101.000000 83.166718,101.000000 1.000055,101.000000 
	C1.000037,67.666702 1.000037,34.333401 1.000018,1.000077 
	C118.333260,1.000052 235.666519,1.000052 352.999817,1.000026 
	C352.999878,34.333256 352.999878,67.666512 352.999939,100.999878 
	C318.166656,101.000000 283.333344,101.000000 248.000000,101.000000 
M24.620085,59.683861 
	C25.018351,59.136890 25.416616,58.589924 26.064653,58.768188 
	C27.546646,59.896278 28.968515,61.874123 30.522543,61.984070 
	C34.321884,62.252880 38.182316,61.658169 41.922150,61.417213 
	C41.922150,54.378513 41.922150,47.654369 41.922150,41.058205 
	C33.651375,41.058205 25.736712,41.058205 17.719915,41.058205 
	C17.719915,51.776897 17.719915,62.196686 17.719915,72.807953 
	C25.955603,72.807953 34.020790,72.807953 41.970280,72.807953 
	C41.970280,70.619476 41.970280,68.701614 41.970280,66.333481 
	C35.922554,66.333481 30.170338,66.333481 24.216299,66.333481 
	C24.216299,63.927773 24.216299,61.967144 24.620085,59.683861 
M289.261719,69.481583 
	C291.265137,69.810188 293.268585,70.138802 295.272003,70.467415 
	C295.451385,68.450615 295.630768,66.433815 295.856781,63.892567 
	C287.554535,65.934174 284.923157,60.891739 282.964417,55.012379 
	C284.601959,55.840466 285.774872,57.256947 287.247528,58.210613 
	C289.025146,59.361771 291.168213,61.009007 292.945831,60.786415 
	C294.559387,60.584366 295.894867,58.161880 298.077148,56.001308 
	C290.478851,54.547478 284.482300,51.949249 284.289093,44.962009 
	C284.097626,38.039047 285.923737,31.060289 286.929626,23.628017 
	C298.348450,28.547770 308.905945,27.707006 319.050842,24.374006 
	C320.440826,29.539354 322.085693,34.151505 322.873352,38.905674 
	C324.308899,47.570335 320.555786,52.322823 310.401276,55.872570 
	C310.706512,60.853741 311.006561,65.750488 311.365112,71.602043 
	C314.010925,70.599800 316.382538,70.014084 318.444153,68.869804 
	C331.982269,61.355652 337.778229,45.306320 332.199677,31.121778 
	C326.569000,16.804604 311.022766,8.808872 295.988220,12.497497 
	C284.387634,15.343626 274.520660,25.538462 273.004150,36.245350 
	C270.947571,50.764938 276.088470,61.581955 289.261719,69.481583 
M58.092026,43.138401 
	C55.571045,38.163612 51.522346,41.863770 48.188099,40.860397 
	C47.808716,45.187275 47.428165,48.979885 47.156239,52.780266 
	C46.875175,56.708359 46.699631,60.644001 46.472153,64.678642 
	C49.126942,64.678642 51.511158,64.678642 53.772972,64.678642 
	C54.129204,61.311825 54.449318,58.286369 54.919838,53.839378 
	C56.209126,57.226822 56.947544,59.166920 57.638294,60.981785 
	C60.133408,60.981785 62.274841,60.981785 64.467796,60.981785 
	C65.105217,59.360600 65.696991,57.855499 66.762695,55.145027 
	C67.486732,59.122681 67.994873,61.914242 68.491272,64.641296 
	C70.984108,64.641296 73.369064,64.641296 75.768761,64.641296 
	C75.480255,60.459263 75.243195,56.643257 74.946793,52.831863 
	C74.640991,48.899429 74.277451,44.971481 73.966881,41.363552 
	C65.584335,38.294395 62.876469,43.318497 61.279083,51.490150 
	C59.857876,47.803070 59.114765,45.875195 58.092026,43.138401 
M90.749901,65.522629 
	C98.399269,65.061569 102.500633,62.313038 104.046379,56.611980 
	C106.089066,49.078144 102.199181,42.237175 94.868362,40.470997 
	C87.676651,38.738327 80.472183,42.908398 79.030540,49.638191 
	C77.299805,57.717522 81.438049,63.684261 90.749901,65.522629 
M108.265244,45.936184 
	C107.761292,47.329845 107.075279,48.686871 106.786179,50.123760 
	C105.753120,55.258232 106.999710,59.780800 111.295662,62.950657 
	C115.836617,66.301292 120.923698,66.468048 125.868828,63.972309 
	C130.673203,61.547604 132.492462,57.247406 132.209869,51.985130 
	C131.922913,46.641842 129.306854,42.913887 124.314819,41.001549 
	C118.615372,38.818211 113.277184,40.361992 108.265244,45.936184 
M157.066360,56.458302 
	C157.066360,51.344330 157.066360,46.230362 157.066360,41.123253 
	C154.417160,41.123253 152.226181,41.123253 149.608398,41.123253 
	C149.608398,44.484432 149.608398,47.495014 149.608398,50.855381 
	C145.125763,46.849533 144.769119,37.890141 135.743469,41.354977 
	C135.743469,49.075306 135.743469,56.848686 135.743469,64.688728 
	C138.153931,64.688728 140.373779,64.688728 143.134888,64.688728 
	C143.134888,61.409618 143.134888,58.444233 143.134888,54.931255 
	C147.372955,59.538857 148.288223,67.677612 157.066360,64.402710 
	C157.066360,62.063873 157.066360,59.751747 157.066360,56.458302 
M181.002151,59.752193 
	C181.134903,57.914566 180.868027,55.932167 181.471893,54.265202 
	C183.695404,48.127201 181.352859,41.936836 175.734497,41.176968 
	C171.246567,40.569984 166.611023,41.054428 162.068054,41.054428 
	C162.068054,49.177547 162.068054,56.927979 162.068054,64.691406 
	C164.694229,64.691406 167.075317,64.691406 169.473267,64.691406 
	C169.679138,62.623810 169.853348,60.874275 170.027557,59.124744 
	C170.344009,58.648914 170.660461,58.173084 170.976913,57.697254 
	C173.778656,62.048126 175.876190,67.997513 182.373047,64.268333 
	C181.997665,63.067303 181.606445,61.815651 181.002151,59.752193 
M188.808823,44.025162 
	C186.995087,50.869450 185.181335,57.713737 183.297745,64.821609 
	C186.113129,64.821609 188.567642,64.821609 190.994827,64.821609 
	C192.380508,61.447311 197.958954,59.191872 198.695267,61.470078 
	C200.577560,67.293991 204.531586,64.322586 208.051529,64.857086 
	C205.917206,57.620171 203.998688,50.771366 201.812271,44.009178 
	C201.404861,42.749165 199.697021,40.788891 198.972885,40.943874 
	C195.641617,41.656845 191.293884,38.262409 188.808823,44.025162 
M247.018387,45.339573 
	C246.488358,43.833252 245.958313,42.326931 245.508469,41.048485 
	C241.475754,41.048485 237.869507,41.048485 234.274124,41.048485 
	C232.178574,49.094273 230.153549,56.869289 228.011139,65.094933 
	C231.896378,64.457550 236.493942,67.294510 237.413193,59.749233 
	C240.718185,61.330975 243.373169,62.601627 246.028168,63.872284 
	C245.866226,64.198296 245.704269,64.524300 245.542328,64.850311 
	C247.848206,64.850311 250.154083,64.850311 252.820084,64.850311 
	C250.895630,58.452065 249.044388,52.297184 247.018387,45.339573 
M226.078278,55.337765 
	C226.078278,53.564003 226.078278,51.790241 226.078278,50.349152 
	C223.053772,49.814274 220.565338,49.374203 218.076920,48.934128 
	C218.186951,48.368679 218.296982,47.803226 218.407013,47.237774 
	C221.141891,47.059601 223.876785,46.881424 226.500366,46.710503 
	C226.500366,44.576176 226.500366,42.836975 226.500366,41.031143 
	C221.107468,41.031143 216.020813,41.031143 210.752838,41.031143 
	C210.752838,49.037769 210.752838,56.787437 210.752838,64.747185 
	C213.291763,64.747185 215.701263,64.747185 218.513306,64.747185 
	C218.513306,61.734283 218.513306,58.976517 218.513306,55.960266 
	C221.072006,55.960266 223.228165,55.960266 226.078278,55.337765 
z"/>
<path fill="#621DEC" opacity="1.000000" stroke="none" 
	d="
M288.935547,69.281067 
	C276.088470,61.581955 270.947571,50.764938 273.004150,36.245350 
	C274.520660,25.538462 284.387634,15.343626 295.988220,12.497497 
	C311.022766,8.808872 326.569000,16.804604 332.199677,31.121778 
	C337.778229,45.306320 331.982269,61.355652 318.444153,68.869804 
	C316.382538,70.014084 314.010925,70.599800 311.365112,71.602043 
	C311.006561,65.750488 310.706512,60.853741 310.401276,55.872570 
	C320.555786,52.322823 324.308899,47.570335 322.873352,38.905674 
	C322.085693,34.151505 320.440826,29.539354 319.050842,24.374006 
	C308.905945,27.707006 298.348450,28.547770 286.929626,23.628017 
	C285.923737,31.060289 284.097626,38.039047 284.289093,44.962009 
	C284.482300,51.949249 290.478851,54.547478 298.077148,56.001308 
	C295.894867,58.161880 294.559387,60.584366 292.945831,60.786415 
	C291.168213,61.009007 289.025146,59.361771 287.247528,58.210613 
	C285.774872,57.256947 284.601959,55.840466 282.964417,55.012379 
	C284.923157,60.891739 287.554535,65.934174 295.856781,63.892567 
	C295.630768,66.433815 295.451385,68.450615 295.272003,70.467415 
	C293.268585,70.138802 291.265137,69.810188 288.935547,69.281067 
z"/>
<path fill="#070707" opacity="1.000000" stroke="none" 
	d="
M24.216299,60.006512 
	C24.216299,61.967144 24.216299,63.927773 24.216299,66.333481 
	C30.170338,66.333481 35.922554,66.333481 41.970280,66.333481 
	C41.970280,68.701614 41.970280,70.619476 41.970280,72.807953 
	C34.020790,72.807953 25.955603,72.807953 17.719915,72.807953 
	C17.719915,62.196686 17.719915,51.776897 17.719915,41.058205 
	C25.736712,41.058205 33.651375,41.058205 41.922150,41.058205 
	C41.922150,47.654369 41.922150,54.378513 41.922150,61.417213 
	C38.182316,61.658169 34.321884,62.252880 30.522543,61.984070 
	C28.968515,61.874123 27.546646,59.896278 25.999332,58.007851 
	C26.681017,51.297459 28.412680,50.281548 35.642982,51.924911 
	C35.514851,50.259510 35.397961,48.740204 35.294418,47.394394 
	C31.275949,47.394394 27.841177,47.394394 24.216299,47.394394 
	C24.216299,51.776058 24.216299,55.891285 24.216299,60.006512 
z"/>
<path fill="#060606" opacity="1.000000" stroke="none" 
	d="
M58.231842,43.542862 
	C59.114765,45.875195 59.857876,47.803070 61.279083,51.490150 
	C62.876469,43.318497 65.584335,38.294395 73.966881,41.363552 
	C74.277451,44.971481 74.640991,48.899429 74.946793,52.831863 
	C75.243195,56.643257 75.480255,60.459263 75.768761,64.641296 
	C73.369064,64.641296 70.984108,64.641296 68.491272,64.641296 
	C67.994873,61.914242 67.486732,59.122681 66.762695,55.145027 
	C65.696991,57.855499 65.105217,59.360600 64.467796,60.981785 
	C62.274841,60.981785 60.133408,60.981785 57.638294,60.981785 
	C56.947544,59.166920 56.209126,57.226822 54.919838,53.839378 
	C54.449318,58.286369 54.129204,61.311825 53.772972,64.678642 
	C51.511158,64.678642 49.126942,64.678642 46.472153,64.678642 
	C46.699631,60.644001 46.875175,56.708359 47.156239,52.780266 
	C47.428165,48.979885 47.808716,45.187275 48.188099,40.860397 
	C51.522346,41.863770 55.571045,38.163612 58.231842,43.542862 
z"/>
<path fill="#080808" opacity="1.000000" stroke="none" 
	d="
M90.361252,65.468826 
	C81.438049,63.684261 77.299805,57.717522 79.030540,49.638191 
	C80.472183,42.908398 87.676651,38.738327 94.868362,40.470997 
	C102.199181,42.237175 106.089066,49.078144 104.046379,56.611980 
	C102.500633,62.313038 98.399269,65.061569 90.361252,65.468826 
M90.030876,57.414520 
	C92.055588,56.494015 94.971199,56.060959 95.825287,54.499962 
	C96.518135,53.233627 95.283752,49.656391 93.896172,48.859737 
	C92.493790,48.054588 89.073914,48.702354 87.921371,49.970783 
	C85.804398,52.300594 86.317390,55.210526 90.030876,57.414520 
z"/>
<path fill="#080808" opacity="1.000000" stroke="none" 
	d="
M108.493286,45.640396 
	C113.277184,40.361992 118.615372,38.818211 124.314819,41.001549 
	C129.306854,42.913887 131.922913,46.641842 132.209869,51.985130 
	C132.492462,57.247406 130.673203,61.547604 125.868828,63.972309 
	C120.923698,66.468048 115.836617,66.301292 111.295662,62.950657 
	C106.999710,59.780800 105.753120,55.258232 106.786179,50.123760 
	C107.075279,48.686871 107.761292,47.329845 108.493286,45.640396 
M117.182335,57.173729 
	C120.355705,58.384884 123.105995,57.660233 123.817383,54.290234 
	C124.169067,52.624252 123.142723,49.734257 121.805954,48.906769 
	C120.462624,48.075199 117.346130,48.407753 116.093979,49.489147 
	C113.616898,51.628422 114.052864,54.495659 117.182335,57.173729 
z"/>
<path fill="#040404" opacity="1.000000" stroke="none" 
	d="
M157.066360,56.948959 
	C157.066360,59.751747 157.066360,62.063873 157.066360,64.402710 
	C148.288223,67.677612 147.372955,59.538857 143.134888,54.931255 
	C143.134888,58.444233 143.134888,61.409618 143.134888,64.688728 
	C140.373779,64.688728 138.153931,64.688728 135.743469,64.688728 
	C135.743469,56.848686 135.743469,49.075306 135.743469,41.354977 
	C144.769119,37.890141 145.125763,46.849533 149.608398,50.855381 
	C149.608398,47.495014 149.608398,44.484432 149.608398,41.123253 
	C152.226181,41.123253 154.417160,41.123253 157.066360,41.123253 
	C157.066360,46.230362 157.066360,51.344330 157.066360,56.948959 
z"/>
<path fill="#090909" opacity="1.000000" stroke="none" 
	d="
M181.108704,60.158096 
	C181.606445,61.815651 181.997665,63.067303 182.373047,64.268333 
	C175.876190,67.997513 173.778656,62.048126 170.976913,57.697254 
	C170.660461,58.173084 170.344009,58.648914 170.027557,59.124744 
	C169.853348,60.874275 169.679138,62.623810 169.473267,64.691406 
	C167.075317,64.691406 164.694229,64.691406 162.068054,64.691406 
	C162.068054,56.927979 162.068054,49.177547 162.068054,41.054428 
	C166.611023,41.054428 171.246567,40.569984 175.734497,41.176968 
	C181.352859,41.936836 183.695404,48.127201 181.471893,54.265202 
	C180.868027,55.932167 181.134903,57.914566 181.108704,60.158096 
z"/>
<path fill="#070707" opacity="1.000000" stroke="none" 
	d="
M188.891266,43.605011 
	C191.293884,38.262409 195.641617,41.656845 198.972885,40.943874 
	C199.697021,40.788891 201.404861,42.749165 201.812271,44.009178 
	C203.998688,50.771366 205.917206,57.620171 208.051529,64.857086 
	C204.531586,64.322586 200.577560,67.293991 198.695267,61.470078 
	C197.958954,59.191872 192.380508,61.447311 190.994827,64.821609 
	C188.567642,64.821609 186.113129,64.821609 183.297745,64.821609 
	C185.181335,57.713737 186.995087,50.869450 188.891266,43.605011 
z"/>
<path fill="#070707" opacity="1.000000" stroke="none" 
	d="
M247.105774,45.740936 
	C249.044388,52.297184 250.895630,58.452065 252.820084,64.850311 
	C250.154083,64.850311 247.848206,64.850311 245.542328,64.850311 
	C245.704269,64.524300 245.866226,64.198296 246.028168,63.872284 
	C243.373169,62.601627 240.718185,61.330975 237.413193,59.749233 
	C236.493942,67.294510 231.896378,64.457550 228.011139,65.094933 
	C230.153549,56.869289 232.178574,49.094273 234.274124,41.048485 
	C237.869507,41.048485 241.475754,41.048485 245.508469,41.048485 
	C245.958313,42.326931 246.488358,43.833252 247.105774,45.740936 
z"/>
<path fill="#020202" opacity="1.000000" stroke="none" 
	d="
M225.731308,55.649017 
	C223.228165,55.960266 221.072006,55.960266 218.513306,55.960266 
	C218.513306,58.976517 218.513306,61.734283 218.513306,64.747185 
	C215.701263,64.747185 213.291763,64.747185 210.752838,64.747185 
	C210.752838,56.787437 210.752838,49.037769 210.752838,41.031143 
	C216.020813,41.031143 221.107468,41.031143 226.500366,41.031143 
	C226.500366,42.836975 226.500366,44.576176 226.500366,46.710503 
	C223.876785,46.881424 221.141891,47.059601 218.407013,47.237774 
	C218.296982,47.803226 218.186951,48.368679 218.076920,48.934128 
	C220.565338,49.374203 223.053772,49.814274 226.078278,50.349152 
	C226.078278,51.790241 226.078278,53.564003 225.731308,55.649017 
z"/>
<path fill="#E3E3E3" opacity="1.000000" stroke="none" 
	d="
M24.418192,59.845184 
	C24.216299,55.891285 24.216299,51.776058 24.216299,47.394394 
	C27.841177,47.394394 31.275949,47.394394 35.294418,47.394394 
	C35.397961,48.740204 35.514851,50.259510 35.642982,51.924911 
	C28.412680,50.281548 26.681017,51.297459 25.874447,57.645233 
	C25.416616,58.589924 25.018351,59.136890 24.418192,59.845184 
z"/>
<path fill="#F2F2F2" opacity="1.000000" stroke="none" 
	d="
M89.667007,57.267693 
	C86.317390,55.210526 85.804398,52.300594 87.921371,49.970783 
	C89.073914,48.702354 92.493790,48.054588 93.896172,48.859737 
	C95.283752,49.656391 96.518135,53.233627 95.825287,54.499962 
	C94.971199,56.060959 92.055588,56.494015 89.667007,57.267693 
z"/>
<path fill="#F2F2F2" opacity="1.000000" stroke="none" 
	d="
M116.816559,57.015366 
	C114.052864,54.495659 113.616898,51.628422 116.093979,49.489147 
	C117.346130,48.407753 120.462624,48.075199 121.805954,48.906769 
	C123.142723,49.734257 124.169067,52.624252 123.817383,54.290234 
	C123.105995,57.660233 120.355705,58.384884 116.816559,57.015366 
z"/>
</svg>